<svg width="283" height="108" viewBox="0 0 283 108" fill="none" xmlns="http://www.w3.org/2000/svg">
<g filter="url(#filter0_d_1_7276)">
<rect x="28.9102" y="24.0898" width="225.378" height="51.2271" rx="25.6135" fill="white" fill-opacity="0.79" shape-rendering="crispEdges"/>
<path d="M62.5257 44.3535C61.8616 44.3535 61.3398 44.8871 61.3398 45.5393C61.3398 46.1915 61.8735 46.7251 62.5257 46.7251C63.1779 46.7251 63.7114 46.1915 63.7114 45.5393C63.7114 44.8871 63.1779 44.3535 62.5257 44.3535Z" fill="#FF5722"/>
<path d="M77.1247 41.4503C76.1286 39.138 73.9349 37.8455 70.8755 37.8455H60.9384C57.1319 37.8455 54.0488 40.9286 54.0488 44.735V54.6721C54.0488 57.7315 55.3414 59.9253 57.6537 60.9214C57.879 61.0162 58.1399 60.9569 58.3059 60.7909L76.9943 42.1025C77.1722 41.9247 77.2314 41.6638 77.1247 41.4503ZM64.1638 49.9882C63.7013 50.4388 63.0966 50.6522 62.4918 50.6522C61.887 50.6522 61.2823 50.4269 60.8198 49.9882C59.6103 48.8498 58.2822 47.0355 58.7921 44.8773C59.2427 42.9207 60.974 42.0432 62.4918 42.0432C64.0096 42.0432 65.7409 42.9207 66.1915 44.8892C66.6896 47.0355 65.3615 48.8498 64.1638 49.9882Z" fill="#FF5722"/>
<path d="M74.7632 59.8181C75.0241 60.0789 74.9885 60.5058 74.6683 60.6837C73.6248 61.2647 72.356 61.5612 70.8737 61.5612H60.9366C60.5927 61.5612 60.4505 61.158 60.6876 60.9209L67.8499 53.7586C68.0871 53.5214 68.4547 53.5214 68.6918 53.7586L74.7632 59.8181Z" fill="#FF5722"/>
<path d="M77.7678 44.7338V54.6708C77.7678 56.1531 77.4713 57.4338 76.8903 58.4654C76.7124 58.7856 76.2855 58.8093 76.0246 58.5603L69.9533 52.4889C69.7161 52.2518 69.7161 51.8842 69.9533 51.647L77.1156 44.4847C77.3646 44.2476 77.7678 44.3899 77.7678 44.7338Z" fill="#FF5722"/>
<path d="M101.635 52.9542C101.782 54.2306 102.044 55.0324 102.486 55.7034H99.2781C99.0163 54.9015 98.8526 54.247 98.7545 53.4451C98.6072 52.2014 98.1163 51.4814 97.3635 51.4323C97.0362 51.4159 96.758 51.4159 96.4307 51.4159H95.7762V55.7034H92.8306V44.4121H97.3144C98.0181 44.4121 98.4763 44.4284 99.0817 44.4939C100.718 44.6903 102.142 45.4921 102.142 47.4885C102.142 48.9122 101.373 49.8613 99.8672 50.3032C101.045 50.7287 101.471 51.596 101.635 52.9542ZM95.7762 49.2886H96.8399C97.1508 49.2886 97.4126 49.2886 97.6253 49.2722C98.3781 49.2068 99.0654 48.945 99.0654 47.9958C99.0654 47.0467 98.4599 46.7849 97.7072 46.7194C97.4944 46.7031 97.2326 46.7031 96.9217 46.7031H95.7762V49.2886ZM108.682 55.7034L108.485 54.427L108.125 55.3434C107.503 55.7361 106.767 55.9325 105.965 55.9325C104.525 55.9325 103.167 55.0324 103.167 53.3469C103.167 51.4814 104.934 50.3359 107.896 50.3359H108.453V50.205C108.453 50.025 108.453 49.845 108.42 49.5668C108.371 49.125 108.011 48.7322 107.373 48.7322C106.685 48.7322 106.292 49.1741 106.243 49.9268L103.461 49.9432C103.478 47.8976 105.294 46.7358 107.503 46.7358C110.269 46.7358 111.218 47.9631 111.349 49.5504C111.382 49.9923 111.398 50.4996 111.398 51.0396V53.4942C111.398 54.1488 111.431 54.7379 111.562 55.7034H108.682ZM107.176 53.936C107.765 53.936 108.453 53.4942 108.453 52.5778V52.0051C107.127 51.9069 106.178 52.2505 106.178 53.1178C106.178 53.6415 106.587 53.936 107.176 53.936ZM122.344 43.6757V55.7034H119.399V54.427L118.744 55.3924C118.253 55.7525 117.402 55.9325 116.519 55.9325C114.146 55.9325 112.673 54.116 112.673 51.5305C112.673 48.4213 114.571 46.7358 116.813 46.7358C117.533 46.7358 118.384 46.8994 118.826 47.1613L119.399 48.094V43.6757H122.344ZM117.533 53.936C118.613 53.936 119.399 53.2815 119.399 51.4487V51.0723C119.399 49.3213 118.499 48.7322 117.615 48.7322C116.47 48.7322 115.684 49.5995 115.684 51.3832C115.684 53.0196 116.502 53.936 117.533 53.936ZM128.218 46.7358C130.787 46.7358 132.358 48.3395 132.44 50.3032H129.593C129.462 49.1577 128.889 48.7322 128.153 48.7322C127.171 48.7322 126.631 49.5668 126.631 51.2523C126.631 53.1178 127.187 53.936 128.185 53.936C128.856 53.936 129.413 53.4451 129.576 52.496H132.473C132.146 54.7542 130.395 55.9325 128.022 55.9325C125.518 55.9325 123.62 54.3124 123.62 51.4323C123.62 48.4213 125.649 46.7358 128.218 46.7358ZM136.595 43.6757V52.5614C136.595 52.9705 136.595 53.1506 136.628 53.3633C136.677 53.7069 136.824 53.8215 137.593 53.7888V55.7852C137.053 55.8343 136.53 55.867 135.875 55.867C134.517 55.867 133.748 55.327 133.682 54.1651C133.65 53.7069 133.65 53.2651 133.65 52.6105V43.6757H136.595ZM140.174 43.4139C141.09 43.4139 141.696 43.9702 141.696 44.8539C141.696 45.7376 141.09 46.294 140.174 46.294C139.258 46.294 138.652 45.7376 138.652 44.8539C138.652 43.9702 139.258 43.4139 140.174 43.4139ZM141.647 55.7034H138.701V46.9649H141.647V55.7034ZM146.737 46.3103C146.721 46.5394 146.721 46.7521 146.721 46.9649V47.0303H148.505V48.8631H146.721V55.7034H143.775V48.8631H142.843V47.0303H143.775V46.9649C143.775 46.7031 143.775 46.3103 143.792 46.0158C143.923 44.3793 144.97 43.3648 147.67 43.3648C148.014 43.3648 148.357 43.4139 148.652 43.4957V45.4103C147.588 45.2303 146.819 45.5412 146.737 46.3103ZM152.922 46.3103C152.906 46.5394 152.906 46.7521 152.906 46.9649V47.0303H154.689V48.8631H152.906V55.7034H149.96V48.8631H149.027V47.0303H149.96V46.9649C149.96 46.7031 149.96 46.3103 149.976 46.0158C150.107 44.3793 151.155 43.3648 153.855 43.3648C154.198 43.3648 154.542 43.4139 154.837 43.4957V45.4103C153.773 45.2303 153.004 45.5412 152.922 46.3103ZM164.343 51.2196C164.343 51.4814 164.327 51.776 164.294 52.0705H158.206C158.354 53.5269 158.992 53.936 159.826 53.936C160.661 53.936 161.168 53.5106 161.283 52.8396H164.179C163.672 54.8197 162.036 55.9325 159.794 55.9325C157.29 55.9325 155.294 54.4433 155.294 51.3669C155.294 48.814 157.045 46.7358 159.957 46.7358C162.87 46.7358 164.343 48.9613 164.343 51.2196ZM159.81 48.7322C159.041 48.7322 158.501 49.1904 158.305 50.2705H161.266C161.103 49.2395 160.596 48.7322 159.81 48.7322ZM174.069 44.183C177.293 44.183 178.946 45.9012 179.175 48.1267L179.191 48.2904H176.246L176.213 48.1267C175.968 46.9158 175.231 46.343 174.037 46.343C172.629 46.343 171.566 47.5213 171.566 49.9595C171.566 52.8069 172.744 53.7724 174.053 53.7724C175.198 53.7724 175.935 53.0687 176.18 51.8251L176.213 51.6614H179.159L179.142 51.8251C178.864 54.5415 176.786 55.9325 173.955 55.9325C170.927 55.9325 168.489 53.9688 168.489 50.1395C168.489 46.2121 171.009 44.183 174.069 44.183ZM185.629 55.7034L185.432 54.427L185.072 55.3434C184.45 55.7361 183.714 55.9325 182.912 55.9325C181.472 55.9325 180.114 55.0324 180.114 53.3469C180.114 51.4814 181.881 50.3359 184.843 50.3359H185.399V50.205C185.399 50.025 185.399 49.845 185.367 49.5668C185.318 49.125 184.958 48.7322 184.319 48.7322C183.632 48.7322 183.239 49.1741 183.19 49.9268L180.408 49.9432C180.425 47.8976 182.241 46.7358 184.45 46.7358C187.216 46.7358 188.165 47.9631 188.296 49.5504C188.329 49.9923 188.345 50.4996 188.345 51.0396V53.4942C188.345 54.1488 188.378 54.7379 188.509 55.7034H185.629ZM184.123 53.936C184.712 53.936 185.399 53.4942 185.399 52.5778V52.0051C184.074 51.9069 183.125 52.2505 183.125 53.1178C183.125 53.6415 183.534 53.936 184.123 53.936ZM204.168 48.945C204.233 49.3868 204.25 49.8941 204.25 50.5977V55.7034H201.304V51.2523C201.304 50.9741 201.288 50.4996 201.239 50.0577C201.14 49.2231 200.748 48.7322 199.979 48.7322C199.029 48.7322 198.653 49.5995 198.653 51.0887V55.7034H195.708V51.2523C195.708 50.9741 195.691 50.4996 195.642 50.0577C195.544 49.2231 195.151 48.7322 194.382 48.7322C193.433 48.7322 193.057 49.5995 193.057 51.0887V55.7034H190.111V46.9649H193.057V48.3722L193.76 47.2431C194.3 46.9158 194.84 46.7358 195.642 46.7358C197.131 46.7358 198.064 47.4722 198.44 48.4377L199.357 47.2431C199.897 46.9158 200.437 46.7358 201.239 46.7358C202.99 46.7358 203.971 47.7504 204.168 48.945ZM214.474 51.2196C214.474 51.4814 214.458 51.776 214.425 52.0705H208.338C208.485 53.5269 209.123 53.936 209.958 53.936C210.792 53.936 211.3 53.5106 211.414 52.8396H214.311C213.803 54.8197 212.167 55.9325 209.925 55.9325C207.421 55.9325 205.425 54.4433 205.425 51.3669C205.425 48.814 207.176 46.7358 210.089 46.7358C213.002 46.7358 214.474 48.9613 214.474 51.2196ZM209.941 48.7322C209.172 48.7322 208.632 49.1904 208.436 50.2705H211.398C211.234 49.2395 210.727 48.7322 209.941 48.7322ZM221.03 46.7358C221.308 46.7358 221.488 46.7521 221.701 46.7849V49.1904C219.491 49.0431 218.689 49.8613 218.689 52.496V55.7034H215.744V46.9649H218.689V48.7322L219.311 47.5049C219.786 46.9812 220.473 46.7358 221.03 46.7358ZM227.738 55.7034L227.541 54.427L227.181 55.3434C226.559 55.7361 225.823 55.9325 225.021 55.9325C223.581 55.9325 222.223 55.0324 222.223 53.3469C222.223 51.4814 223.99 50.3359 226.952 50.3359H227.509V50.205C227.509 50.025 227.509 49.845 227.476 49.5668C227.427 49.125 227.067 48.7322 226.428 48.7322C225.741 48.7322 225.348 49.1741 225.299 49.9268L222.517 49.9432C222.534 47.8976 224.35 46.7358 226.559 46.7358C229.325 46.7358 230.274 47.9631 230.405 49.5504C230.438 49.9923 230.454 50.4996 230.454 51.0396V53.4942C230.454 54.1488 230.487 54.7379 230.618 55.7034H227.738ZM226.232 53.936C226.821 53.936 227.509 53.4942 227.509 52.5778V52.0051C226.183 51.9069 225.234 52.2505 225.234 53.1178C225.234 53.6415 225.643 53.936 226.232 53.936Z" fill="#191825"/>
</g>
<defs>
<filter id="filter0_d_1_7276" x="0.910156" y="0.0898438" width="281.379" height="107.227" filterUnits="userSpaceOnUse" color-interpolation-filters="sRGB">
<feFlood flood-opacity="0" result="BackgroundImageFix"/>
<feColorMatrix in="SourceAlpha" type="matrix" values="0 0 0 0 0 0 0 0 0 0 0 0 0 0 0 0 0 0 127 0" result="hardAlpha"/>
<feOffset dy="4"/>
<feGaussianBlur stdDeviation="14"/>
<feComposite in2="hardAlpha" operator="out"/>
<feColorMatrix type="matrix" values="0 0 0 0 0.588235 0 0 0 0 0.560784 0 0 0 0 0.619608 0 0 0 0.2 0"/>
<feBlend mode="normal" in2="BackgroundImageFix" result="effect1_dropShadow_1_7276"/>
<feBlend mode="normal" in="SourceGraphic" in2="effect1_dropShadow_1_7276" result="shape"/>
</filter>
</defs>
</svg>
