<svg width="18" height="18" viewBox="0 0 18 18" fill="none" xmlns="http://www.w3.org/2000/svg">
<path d="M9 15L13 11L11.6 9.6L10 11.2V7H8V11.2L6.4 9.6L5 11L9 15ZM2 5V16H16V5H2ZM2 18C1.45 18 0.979167 17.8042 0.5875 17.4125C0.195833 17.0208 0 16.55 0 16V3.525C0 3.29167 0.0375 3.06667 0.1125 2.85C0.1875 2.63333 0.3 2.43333 0.45 2.25L1.7 0.725C1.88333 0.491667 2.1125 0.3125 2.3875 0.1875C2.6625 0.0625 2.95 0 3.25 0H14.75C15.05 0 15.3375 0.0625 15.6125 0.1875C15.8875 0.3125 16.1167 0.491667 16.3 0.725L17.55 2.25C17.7 2.43333 17.8125 2.63333 17.8875 2.85C17.9625 3.06667 18 3.29167 18 3.525V16C18 16.55 17.8042 17.0208 17.4125 17.4125C17.0208 17.8042 16.55 18 16 18H2ZM2.4 3H15.6L14.75 2H3.25L2.4 3Z" fill="#684F88"/>
</svg>
