<svg width="18" height="20" viewBox="0 0 18 20" fill="none" xmlns="http://www.w3.org/2000/svg">
<path d="M2 20C1.45 20 0.979167 19.8042 0.5875 19.4125C0.195833 19.0208 0 18.55 0 18V4C0 3.45 0.195833 2.97917 0.5875 2.5875C0.979167 2.19583 1.45 2 2 2H6.175C6.35833 1.41667 6.71667 0.9375 7.25 0.5625C7.78333 0.1875 8.36667 0 9 0C9.66667 0 10.2625 0.1875 10.7875 0.5625C11.3125 0.9375 11.6667 1.41667 11.85 2H16C16.55 2 17.0208 2.19583 17.4125 2.5875C17.8042 2.97917 18 3.45 18 4V18C18 18.55 17.8042 19.0208 17.4125 19.4125C17.0208 19.8042 16.55 20 16 20H2ZM2 18H16V4H14V7H4V4H2V18ZM9 4C9.28333 4 9.52083 3.90417 9.7125 3.7125C9.90417 3.52083 10 3.28333 10 3C10 2.71667 9.90417 2.47917 9.7125 2.2875C9.52083 2.09583 9.28333 2 9 2C8.71667 2 8.47917 2.09583 8.2875 2.2875C8.09583 2.47917 8 2.71667 8 3C8 3.28333 8.09583 3.52083 8.2875 3.7125C8.47917 3.90417 8.71667 4 9 4Z" fill="#260254" fill-opacity="0.7"/>
</svg>
